<?xml version="1.0" encoding="utf-8"?>
<!-- Generator: Adobe Illustrator 19.2.1, SVG Export Plug-In . SVG Version: 6.00 Build 0)  -->
<svg version="1.1" id="Layer_1" xmlns="http://www.w3.org/2000/svg" xmlns:xlink="http://www.w3.org/1999/xlink" x="0px" y="0px"
	 viewBox="0 0 166.66667 55.66667" style="enable-background:new 0 0 166.66667 55.66667;" xml:space="preserve">
<style type="text/css">
	.st0{fill:none;stroke:#000000;stroke-width:3;stroke-linejoin:round;}
	.st1{fill:none;stroke:#000000;stroke-width:3;stroke-linejoin:round;stroke-dasharray:2.71153,1.80768;}
	.st2{fill:#FFFFFF;stroke:#000000;stroke-width:4;stroke-linecap:round;stroke-linejoin:round;stroke-miterlimit:10;}
	.st3{fill:#C0C0C8;}
	.st4{fill:#000900;}
	.st5{fill:#FFFFFF;stroke:#000000;stroke-width:4;stroke-miterlimit:10;}
	.st6{fill:none;stroke:#000000;stroke-width:4;stroke-miterlimit:10;}
	.st7{fill:#FFFFFF;}
	.st8{fill:none;stroke:#000000;stroke-width:3;stroke-linecap:round;stroke-linejoin:round;stroke-miterlimit:10;}
	.st9{fill:none;stroke:#000000;stroke-width:4;stroke-linecap:round;stroke-linejoin:round;stroke-miterlimit:10;}
	.st10{fill:#231F20;}
	.st11{fill:#FFFFFF;stroke:#231F20;stroke-width:3;stroke-miterlimit:10;}
	.st12{fill:#1CC628;}
	
		.st13{fill:none;stroke:#000000;stroke-width:2;stroke-linecap:round;stroke-linejoin:round;stroke-miterlimit:10;stroke-dasharray:2,4;}
	.st14{fill:none;stroke:#000000;stroke-width:4;stroke-linejoin:round;stroke-miterlimit:10;}
	.st15{fill:none;stroke:#000000;stroke-width:5;stroke-linejoin:round;stroke-miterlimit:10;}
	.st16{fill:none;stroke:#000000;stroke-width:5;stroke-linejoin:round;}
	.st17{fill:none;stroke:#000000;stroke-width:5;stroke-linejoin:round;stroke-dasharray:5.72785,2.86393;}
	.st18{fill:none;stroke:#000000;stroke-width:5;stroke-linejoin:round;stroke-dasharray:5.875,2.9375;}
</style>
<g>
	<path d="M69.27702,37.56487l0.10764-0.35789L60.0455,15.88173h3.93587l6.08319,15.49321l1.00191,2.68371h0.10674l0.78753-2.75546
		l4.90189-15.42145h3.64973l-7.7641,21.5755c-1.43155,3.89999-3.50712,5.47416-6.61957,5.47416
		c-1.1813,0-2.3617-0.25025-3.29185-0.679l0.32201-2.54109c0.82251,0.39376,1.61005,0.57316,2.39758,0.57316
		C67.20235,40.28446,68.34688,39.64044,69.27702,37.56487z"/>
	<path d="M95.25123,34.59503l-0.10674-0.03588c-1.25305,1.82531-3.57798,2.96984-6.33344,2.96984
		c-3.89999,0-6.54781-2.03969-6.54781-6.83395c0-4.00762,2.57607-6.47606,7.65736-6.47606
		c1.82442,0,3.57798,0.35789,4.90189,0.82251v-2.11055c0-3.36361-1.50331-4.54401-4.97365-4.54401
		c-2.25407,0-4.07938,0.39287-5.97556,1.28804l-0.32201-2.82722c2.03969-0.93015,4.32964-1.39567,6.86983-1.39567
		c5.61767,0,7.72822,2.3617,7.72822,7.97937v13.77553h-2.57607L95.25123,34.59503z M94.7866,27.47495
		c-0.53728-0.32201-2.11144-0.78753-4.25787-0.78753c-3.5421,0-5.08128,1.43155-5.08128,3.97174
		c0,3.04159,1.82532,4.07938,4.29375,4.07938c2.64783,0,5.0454-1.78944,5.0454-3.57887V27.47495z"/>
	<path d="M103.76518,37.20698V16.02524l2.71958-0.17939l0.28613,4.57988h0.07176c1.32301-3.07658,3.64883-4.86601,6.54781-4.86601
		c0.78664,0,1.53829,0.10764,2.11055,0.28613l-0.21437,3.43536c-0.64402-0.21527-1.35979-0.28613-2.11145-0.28613
		c-3.32773,0-6.01054,2.82632-6.01054,7.40621v10.80569H103.76518z"/>
	<path d="M128.27286,37.60075c-2.25407,0-4.32874-0.57226-5.79617-2.32582l-0.07176,0.03588l0.03588,2.89808v4.29375h-3.47034
		V15.98936l2.43256-0.17939l0.71578,2.21908c1.53918-1.57506,3.75737-2.50521,6.33344-2.50521
		c5.22391,0,8.15787,2.71959,8.15787,10.98508C136.61011,34.38066,133.39001,37.60075,128.27286,37.60075z M127.62884,18.63719
		c-2.28995,0-4.07848,0.89427-5.18803,2.50432v10.94921c0.82341,1.39477,2.50521,2.61195,5.00953,2.61195
		c3.32772,0,5.65354-1.61005,5.65354-8.19374C133.10388,20.319,131.2077,18.63719,127.62884,18.63719z"/>
	<path d="M154.28293,19.6391c-1.25215-0.57316-2.79044-0.96603-4.32874-0.96603c-4.61575,0-6.33344,2.21819-6.33344,7.72822
		c0,6.01143,2.1823,8.22962,6.26169,8.22962c1.68179,0,3.25597-0.42964,4.54401-1.21628l0.25024,2.79045
		c-1.25215,0.85839-3.25597,1.46743-5.51003,1.46743c-5.97556,0-9.05214-3.43536-9.05214-11.27121
		c0-7.19184,2.79045-10.84157,9.15977-10.84157c1.89616,0,3.82823,0.42964,5.22389,1.03778L154.28293,19.6391z"/>
</g>
<g>
	<path d="M39.62535,34.37271l-1.67459,0.27615c-0.23111,0.03811-0.38756,0.25637-0.34946,0.48748l0.23634,1.432
		c0.0381,0.23111,0.25637,0.38746,0.48743,0.34935l1.67465-0.27615c0.23111-0.03811,0.38756-0.25637,0.34941-0.48758
		l-0.23629-1.43179C40.07468,34.49105,39.85646,34.3346,39.62535,34.37271z"/>
	<path d="M50.78628,30.10094c-1.45498-0.59506-3.0455-0.26486-4.1589,0.69674l-4.91771-2.42435
		c0.00564-0.03893,0.01957-0.07455,0.02413-0.11379c0.26269-2.26344-1.35926-4.31121-3.62265-4.5739
		c-0.16163-0.01874-0.32191-0.02796-0.4808-0.02785c-0.25125,0-0.49788,0.02464-0.73852,0.06875l-3.66225-6.78599
		c0.32947-0.35028,0.60909-0.75772,0.80199-1.22936c0.84387-2.0633-0.1447-4.42014-2.20805-5.26401
		c-2.0633-0.84387-4.42009,0.14475-5.26391,2.20815c-0.3126,0.76435-0.3712,1.56847-0.21936,2.32164l-7.30888,4.17505
		c-0.3347-0.29965-0.71357-0.55934-1.15321-0.73919c-2.0633-0.84387-4.42009,0.14465-5.26391,2.20805
		c-0.84387,2.0634,0.1447,4.42003,2.20805,5.26391c1.12328,0.45952,2.32588,0.36054,3.3317-0.14392l3.1551,3.14211
		c-0.0438,0.08822-0.09997,0.1667-0.13787,0.25927c-0.79045,1.93273,0.03997,4.1064,1.84229,5.06956l-1.02368,6.01345
		c-1.35201,0.2103-2.56636,1.08834-3.12207,2.44713c-0.84387,2.0633,0.1447,4.42004,2.20805,5.26391
		s4.42008-0.14475,5.26396-2.20805c0.03893-0.09515,0.05446-0.19311,0.08568-0.2894l10.02242-0.73598
		c0.39822,0.95777,1.16211,1.76313,2.19801,2.18672c2.0633,0.84388,4.42009-0.14465,5.26391-2.20805
		c0.47402-1.15906,0.35334-2.40219-0.19471-3.42623l3.65661-3.87302c0.11964,0.06368,0.23054,0.13823,0.35867,0.19062
		c2.06335,0.84387,4.42009-0.14465,5.26396-2.20795C53.8382,33.30156,52.84963,30.94482,50.78628,30.10094z M36.06493,27.60163
		c0.09257-0.79759,0.7657-1.39907,1.56572-1.39917c0.06181,0,0.1242,0.00362,0.1871,0.01087
		c0.86603,0.10054,1.48884,0.88684,1.38836,1.75287c-0.09257,0.79769-0.76554,1.39917-1.56541,1.39917
		c-0.06192,0-0.12436-0.00352-0.18752-0.01087c-0.4195-0.04867-0.7949-0.25782-1.05712-0.58885
		C36.13384,28.43453,36.01627,28.02118,36.06493,27.60163z M30.3153,18.21807c0.22816-0.00124,0.45274-0.02941,0.67505-0.06865
		l3.66971,6.79976c-0.5976,0.62623-1.01539,1.43324-1.12282,2.35912c-0.00393,0.03396,0.00161,0.06647-0.0015,0.10033
		l-5.1876,1.17656c-0.26719-0.44192-0.61882-0.83124-1.04609-1.14767L30.3153,18.21807z M19.94819,23.93632
		c0.0439-0.08822,0.10007-0.1667,0.13802-0.25948c0.31265-0.76446,0.37115-1.56867,0.2193-2.32174l7.30872-4.17526
		c0.09179,0.08211,0.18601,0.16163,0.28609,0.23577l-3.01335,9.21976c-0.62649,0.00342-1.23206,0.16619-1.78358,0.44296
		L19.94819,23.93632z M36.27854,42.16378l-9.87492,0.72501c-0.32331-0.93561-0.98475-1.73775-1.90638-2.2301l1.02398-6.01345
		c0.54811-0.08521,1.07182-0.27553,1.53947-0.57073l9.3494,7.64487C36.35418,41.8662,36.31649,42.01499,36.27854,42.16378z
		 M41.86778,39.50584c-0.05752-0.02671-0.1067-0.06399-0.16598-0.08822c-0.28049-0.11473-0.56643-0.19011-0.85293-0.23846
		l-0.11147-0.67562c-0.03815-0.23111-0.25637-0.38756-0.48748-0.34946l-1.6746,0.27615
		c-0.23116,0.03811-0.38761,0.25637-0.34946,0.48748l0.10851,0.6577c-0.10639,0.05488-0.21273,0.10996-0.31415,0.17395
		l-9.34934-7.64477c0.13005-0.34138,0.19999-0.68846,0.23458-1.03626l5.20033-1.17946
		c0.6196,1.03688,1.67486,1.79543,2.95568,1.97591l0.15169,0.92112c0.03805,0.23111,0.25632,0.38766,0.48748,0.34956l1.6745-0.27615
		c0.23111-0.03811,0.38756-0.25637,0.3494-0.48758l-0.16064-0.97351c0.37089-0.20191,0.71936-0.44275,1.01451-0.74509
		l4.7421,2.33769c-0.18959,0.87856-0.0731,1.76768,0.29152,2.54881L41.86778,39.50584z"/>
</g>
</svg>
