<?xml version="1.0" encoding="utf-8"?>
<!-- Generator: Adobe Illustrator 19.2.1, SVG Export Plug-In . SVG Version: 6.00 Build 0)  -->
<svg version="1.1" id="Layer_1" xmlns="http://www.w3.org/2000/svg" xmlns:xlink="http://www.w3.org/1999/xlink" x="0px" y="0px"
	 viewBox="0 0 42 42" style="enable-background:new 0 0 42 42;" xml:space="preserve">
<g>
	<path d="M27.63368,25.61094l-1.6746,0.27615c-0.23111,0.0381-0.38756,0.25637-0.34946,0.48748l0.23634,1.432
		c0.03811,0.23111,0.25637,0.38746,0.48743,0.34935l1.67465-0.27615c0.23111-0.0381,0.38756-0.25637,0.34941-0.48758
		l-0.23628-1.43179C28.08301,25.72929,27.86479,25.57284,27.63368,25.61094z"/>
	<path d="M38.79461,21.33918c-1.45498-0.59506-3.04551-0.26486-4.1589,0.69674L29.718,19.61157
		c0.00564-0.03893,0.01957-0.07455,0.02413-0.11379c0.26269-2.26344-1.35926-4.31121-3.62265-4.5739
		c-0.16163-0.01874-0.32191-0.02796-0.4808-0.02785c-0.25125,0-0.49788,0.02464-0.73852,0.06875L21.2379,8.17879
		c0.32947-0.35029,0.60909-0.75773,0.80199-1.22936c0.84387-2.0633-0.1447-4.42014-2.20805-5.26401
		c-2.0633-0.84387-4.42009,0.14475-5.26391,2.20815c-0.3126,0.76435-0.3712,1.56847-0.21936,2.32164L7.0397,10.39026
		C6.705,10.09061,6.32614,9.83092,5.88649,9.65107c-2.0633-0.84387-4.42009,0.14465-5.26391,2.20805
		c-0.84387,2.0634,0.1447,4.42003,2.20805,5.26391c1.12328,0.45952,2.32588,0.36053,3.3317-0.14392l3.1551,3.14211
		c-0.0438,0.08822-0.09997,0.1667-0.13787,0.25927c-0.79045,1.93273,0.03997,4.1064,1.84229,5.06956l-1.02368,6.01345
		c-1.35201,0.21029-2.56636,1.08834-3.12207,2.44713c-0.84387,2.0633,0.1447,4.42003,2.20805,5.26391
		c2.06335,0.84387,4.42009-0.14475,5.26396-2.20805c0.03893-0.09516,0.05446-0.19311,0.08568-0.2894l10.02242-0.73598
		c0.39823,0.95777,1.16211,1.76313,2.19801,2.18672c2.0633,0.84387,4.42008-0.14465,5.26391-2.20805
		c0.47402-1.15906,0.35334-2.40219-0.19471-3.42623l3.65661-3.87302c0.11964,0.06368,0.23054,0.13823,0.35867,0.19062
		c2.06335,0.84387,4.42009-0.14465,5.26396-2.20795C41.84653,24.53979,40.85796,22.18306,38.79461,21.33918z M24.07326,18.83987
		c0.09257-0.79759,0.7657-1.39907,1.56572-1.39917c0.06182,0,0.1242,0.00362,0.1871,0.01087
		c0.86603,0.10054,1.48884,0.88684,1.38835,1.75287c-0.09257,0.7977-0.76554,1.39917-1.56541,1.39917
		c-0.06192,0-0.12436-0.00352-0.18752-0.01087c-0.4195-0.04866-0.7949-0.25782-1.05712-0.58885
		C24.14217,19.67277,24.0246,19.25942,24.07326,18.83987z M18.32364,9.4563c0.22816-0.00124,0.45274-0.02941,0.67505-0.06865
		l3.66971,6.79976c-0.5976,0.62623-1.01539,1.43324-1.12282,2.35912c-0.00393,0.03396,0.00161,0.06647-0.0015,0.10033
		l-5.1876,1.17656c-0.26719-0.44192-0.61882-0.83124-1.04609-1.14767L18.32364,9.4563z M7.95652,15.17456
		c0.0439-0.08822,0.10007-0.1667,0.13802-0.25948c0.31265-0.76446,0.37115-1.56867,0.2193-2.32174l7.30872-4.17526
		c0.09179,0.08211,0.18601,0.16163,0.28609,0.23577l-3.01335,9.21976c-0.62648,0.00342-1.23205,0.16619-1.78358,0.44296
		L7.95652,15.17456z M24.28687,33.40202l-9.87492,0.72501c-0.32331-0.93561-0.98474-1.73776-1.90638-2.2301l1.02399-6.01345
		c0.5481-0.08522,1.07182-0.27553,1.53947-0.57073l9.34939,7.64487C24.36251,33.10444,24.32482,33.25323,24.28687,33.40202z
		 M29.87611,30.74408c-0.05752-0.02671-0.1067-0.06399-0.16598-0.08822c-0.2805-0.11473-0.56643-0.19011-0.85293-0.23846
		l-0.11146-0.67562c-0.03815-0.23111-0.25637-0.38756-0.48748-0.34946l-1.6746,0.27615
		c-0.23116,0.0381-0.38761,0.25637-0.34946,0.48748l0.10851,0.6577c-0.10639,0.05488-0.21273,0.10996-0.31415,0.17395
		l-9.34934-7.64477c0.13005-0.34138,0.19999-0.68846,0.23458-1.03626l5.20033-1.17946
		c0.6196,1.03688,1.67486,1.79543,2.95568,1.97591l0.15169,0.92112c0.03805,0.23111,0.25632,0.38766,0.48748,0.34956
		l1.67449-0.27615c0.23111-0.0381,0.38756-0.25637,0.34941-0.48758l-0.16065-0.97351
		c0.37089-0.20191,0.71936-0.44275,1.01451-0.74509l4.7421,2.33768c-0.18959,0.87856-0.0731,1.76768,0.29153,2.54881
		L29.87611,30.74408z"/>
</g>
</svg>
